<?xml version="1.0" standalone="no"?>
<!DOCTYPE svg PUBLIC "-//W3C//DTD SVG 20010904//EN"
 "http://www.w3.org/TR/2001/REC-SVG-20010904/DTD/svg10.dtd">
<svg version="1.0" xmlns="http://www.w3.org/2000/svg"
 width="1920.000000pt" height="582.000000pt" viewBox="0 0 1920.000000 582.000000"
 preserveAspectRatio="xMidYMid meet">

<g transform="translate(0.000000,582.000000) scale(0.100000,-0.100000)"
fill="#2C53B1" stroke="none">
<path d="M16150 5546 c-365 -39 -663 -123 -951 -267 -121 -60 -269 -147 -269
-158 0 -4 24 -59 53 -122 l52 -115 80 38 c383 180 821 267 1212 238 456 -33
852 -166 1214 -408 368 -246 632 -546 835 -947 297 -589 341 -1269 123 -1901
-43 -126 -122 -299 -182 -402 l-36 -61 55 -20 c30 -12 81 -34 113 -50 l59 -30
70 107 c248 380 381 754 427 1207 117 1138 -537 2238 -1600 2689 -388 164
-874 243 -1255 202z"/>
<path d="M14745 5013 c-458 -353 -800 -874 -944 -1436 -62 -242 -75 -356 -76
-657 0 -222 4 -296 18 -385 84 -500 257 -899 553 -1275 94 -119 329 -350 451
-443 353 -268 758 -446 1181 -517 480 -81 973 -28 1427 152 302 120 601 312
834 533 94 90 271 283 271 295 0 9 -99 54 -177 81 -291 101 -664 98 -1030 -7
-197 -56 -324 -112 -532 -233 -127 -74 -314 -152 -447 -186 -120 -32 -309 -44
-396 -26 -113 24 -240 107 -294 193 -45 71 -57 146 -50 308 4 80 11 173 17
208 8 50 7 68 -6 92 -19 37 -32 44 -166 86 -85 27 -120 44 -151 72 -48 43 -77
102 -78 155 0 49 32 140 66 184 14 19 24 36 23 37 -2 2 -37 22 -77 46 -158 93
-207 209 -141 334 60 112 79 155 84 191 l7 40 -74 19 c-204 53 -419 172 -463
257 -35 67 -19 110 117 325 197 310 323 588 368 817 20 98 15 263 -11 359 -27
103 -180 458 -197 458 -4 0 -52 -35 -107 -77z"/>
<path d="M760 4544 c-203 -43 -377 -205 -469 -435 -73 -181 -104 -430 -83
-666 15 -180 41 -285 102 -408 89 -181 181 -270 441 -426 169 -101 265 -172
296 -218 51 -76 67 -201 38 -298 -18 -60 -76 -119 -128 -128 -50 -10 -119 23
-151 72 -26 39 -56 137 -56 183 0 14 -3 35 -6 48 l-6 22 -269 0 -269 0 0 -53
c0 -81 18 -211 45 -325 76 -316 256 -539 499 -619 67 -21 101 -26 196 -27 130
-1 183 10 280 60 240 125 391 419 420 819 27 387 -67 681 -280 878 -70 65
-117 98 -350 249 -190 123 -249 200 -258 334 -13 209 106 318 228 208 46 -41
68 -94 78 -184 l7 -65 279 -3 279 -2 -7 102 c-24 354 -144 627 -341 776 -141
106 -333 146 -515 106z"/>
<path d="M16281 4455 l-81 -94 0 -681 0 -680 160 0 160 0 0 683 0 682 -79 92
-79 92 -81 -94z"/>
<path d="M1890 2900 l0 -1610 595 0 595 0 0 355 0 355 -337 2 -338 3 -3 293
-2 292 300 0 300 0 0 340 0 340 -300 0 -300 0 2 263 3 262 338 3 337 2 0 355
0 355 -595 0 -595 0 0 -1610z"/>
<path d="M3270 4491 c0 -22 437 -3144 445 -3178 l5 -23 314 0 314 0 6 37 c3
21 60 448 126 948 66 501 123 928 127 950 l7 40 7 -40 c4 -22 62 -466 130
-987 l123 -948 318 0 c264 0 318 2 318 14 0 7 101 726 225 1597 124 870 225
1589 225 1596 0 10 -54 13 -274 13 l-274 0 -6 -37 c-3 -21 -51 -499 -106
-1063 -96 -979 -109 -1094 -117 -1060 -1 8 -64 481 -138 1050 -74 569 -137
1052 -141 1073 l-6 37 -281 -2 -281 -3 -145 -1087 c-80 -599 -147 -1088 -151
-1088 -3 0 -52 474 -109 1053 -56 578 -105 1069 -108 1090 l-6 37 -273 0
c-263 0 -274 -1 -274 -19z"/>
<path d="M6407 2913 c-186 -879 -337 -1604 -337 -1611 0 -10 57 -12 267 -10
l268 3 47 250 c26 138 50 256 53 263 3 9 79 12 334 12 305 0 330 -1 335 -17 5
-20 96 -496 96 -507 0 -3 122 -6 270 -6 188 0 270 3 270 11 0 6 -151 728 -335
1604 -184 876 -335 1595 -335 1599 0 3 -134 6 -298 6 l-298 0 -337 -1597z
m738 96 c52 -273 95 -499 95 -503 0 -9 -400 -8 -400 2 0 4 43 238 97 520 61
321 100 507 105 495 4 -10 50 -241 103 -514z"/>
<path d="M8190 2900 l0 -1610 255 0 255 0 0 707 c0 418 4 703 9 697 5 -5 139
-323 297 -706 l289 -698 309 0 c289 0 308 1 303 18 -2 9 -163 381 -356 825
-193 444 -351 812 -351 816 0 4 153 356 340 782 l339 774 -287 3 c-158 1 -291
1 -297 -2 -5 -2 -138 -312 -295 -690 -157 -377 -288 -686 -292 -686 -5 0 -8
311 -8 690 l0 690 -255 0 -255 0 0 -1610z"/>
<path d="M10010 4155 l0 -355 245 0 245 0 0 -1255 0 -1255 255 0 255 0 0 1255
0 1255 250 0 250 0 0 355 0 355 -750 0 -750 0 0 -355z"/>
<path d="M11700 3548 c0 -537 5 -1029 10 -1113 32 -479 150 -801 368 -1007
238 -225 593 -221 841 8 177 164 288 402 354 759 19 106 20 155 24 1213 l4
1102 -255 0 -255 0 -3 -1032 c-3 -1026 -3 -1034 -25 -1110 -53 -187 -133 -268
-264 -268 -102 0 -170 48 -220 155 -64 138 -62 107 -66 1233 l-4 1022 -255 0
-254 0 0 -962z"/>
<path d="M16165 2745 l0 -195 198 0 197 0 0 195 0 195 -197 0 -198 0 0 -195z"/>
<path d="M16620 2747 l0 -185 346 -187 346 -187 123 28 123 27 -25 66 c-14 36
-33 88 -43 114 l-17 49 -314 170 c-173 93 -365 196 -426 229 l-113 60 0 -184z"/>
</g>
</svg>
